<svg width="67" height="33" viewBox="0 0 67 33" fill="none" xmlns="http://www.w3.org/2000/svg">
<line x1="0.5" y1="21.9489" x2="0.500001" y2="9.94885" stroke="white" stroke-linecap="round"/>
<line x1="3.5" y1="25.6427" x2="3.5" y2="6.74483" stroke="white" stroke-linecap="round"/>
<line x1="6.5" y1="21.6427" x2="6.5" y2="9.4795" stroke="white" stroke-linecap="round"/>
<line x1="60.5" y1="21.9489" x2="60.5" y2="9.94885" stroke="white" stroke-linecap="round"/>
<line x1="63.5" y1="25.6427" x2="63.5" y2="6.74483" stroke="white" stroke-linecap="round"/>
<line x1="66.5" y1="21.6427" x2="66.5" y2="9.4795" stroke="white" stroke-linecap="round"/>
<line x1="9.5" y1="31.6427" x2="9.5" y2="1.11224" stroke="white" stroke-linecap="round"/>
<line x1="12.5" y1="28.6427" x2="12.5" y2="4.8469" stroke="white" stroke-linecap="round"/>
<line x1="15.5" y1="22.6427" x2="15.5" y2="9.86726" stroke="white" stroke-linecap="round"/>
<line x1="18.5" y1="24.6427" x2="18.5" y2="7.58156" stroke="white" stroke-linecap="round"/>
<line x1="21.5" y1="30.6427" x2="21.5" y2="2.5612" stroke="white" stroke-linecap="round"/>
<line x1="24.5" y1="22.6427" x2="24.5" y2="9.56113" stroke="white" stroke-linecap="round"/>
<line x1="27.5" y1="24.6427" x2="27.5" y2="7.27544" stroke="white" stroke-linecap="round"/>
<line x1="30.5" y1="30.6427" x2="30.5" y2="1.64284" stroke="white" stroke-linecap="round"/>
<line x1="33.5" y1="23.6427" x2="33.5" y2="9.94889" stroke="white" stroke-linecap="round"/>
<line x1="36.5" y1="26.6427" x2="36.5" y2="6.52035" stroke="white" stroke-linecap="round"/>
<line x1="39.5" y1="31.6427" x2="39.5" y2="0.499992" stroke="white" stroke-linecap="round"/>
<line x1="42.5" y1="23.6427" x2="42.5" y2="9.03053" stroke="white" stroke-linecap="round"/>
<line x1="45.5" y1="27.6427" x2="45.5" y2="5.68362" stroke="white" stroke-linecap="round"/>
<line x1="48.5" y1="24.6427" x2="48.5" y2="7.27544" stroke="white" stroke-linecap="round"/>
<line x1="51.5" y1="31.6427" x2="51.5" y2="0.499992" stroke="white" stroke-linecap="round"/>
<line x1="54.5" y1="25.6427" x2="54.5" y2="7.05096" stroke="white" stroke-linecap="round"/>
<line x1="57.5" y1="29.6427" x2="57.5" y2="3.09181" stroke="white" stroke-linecap="round"/>
</svg>
