<?xml version="1.0"?><svg data-name="Layer 1" id="Layer_1" viewBox="0 0 32 32" xmlns="http://www.w3.org/2000/svg"><path d="M11.81828,28.10852a2.15353,2.15353,0,0,0,.06717.20584l.08017.07181.17353.16171.18869.18424c.078.078.10277.12463.23079.14667a.82007.82007,0,0,0,.43848-.01459c.12285-.02792.15492-.11029.24208-.2045l.22405-.26907a.77836.77836,0,0,0,.2275-.41812,11.51049,11.51049,0,0,1,.97985-2.86759,12.4014,12.4014,0,0,1,1.33087-2.03821c.47755-.56338.91627-.98123,1.12538-1.18676A9.93992,9.93992,0,0,1,20.01676,20.031a13.02956,13.02956,0,0,1,1.78015-.60333c.32445-.09369.40009-.13407.32836-.15a.55229.55229,0,0,1-.18732-.06088,1.577,1.577,0,0,0-.35676.06c-.1948.03128-1.15551.14556-2.13392.37777a8.88013,8.88013,0,0,0-2.25938.88517c-.28137.17886-.49492.31442-.51689.28707-.01872-.02383-.27266.10285-1.05155.83353a11.21991,11.21991,0,0,0-1.43652,1.73685,10.44591,10.44591,0,0,0-.84087,1.46667,9.02529,9.02529,0,0,0-.40029.92353l-.12052.31176c-.01814.03516-.0097.08762-.04559.10932-.05129-.0109-.0306-.08808-.05133-.12723l-.02587-.08643c-.10621-.26846-.20661-.54748-.3269-.82647a12.72356,12.72356,0,0,0-.90869-1.68763,11.65935,11.65935,0,0,0-3.2962-3.366,12.47542,12.47542,0,0,0-1.86815-1.04026L5.45181,18.734c-.01441-.0094-.048-.00348-.03559-.02606.01941-.00711.03852-.00684.0528-.01135l.01057-.00232.0049-.001c-.00627.00271.01744-.00678-.01356.00577l.08-.031.622-.24182c.39467-.179.77307-.34506,1.11149-.53934a11.89272,11.89272,0,0,0,2.897-2.22284,11.71268,11.71268,0,0,0,2.06526-2.99127,12.08763,12.08763,0,0,0,.50681-1.20688c.02072-.06112.00317-.02572.007-.04831l-.00707-.04925a.2802.2802,0,0,1-.0021-.0744c-.0019-.05069.05267-.05442.05087-.01093l.1423.3689a12.21221,12.21221,0,0,0,.973,1.98953,11.22976,11.22976,0,0,0,3.04106,3.31619,3.62311,3.62311,0,0,0,1.02769.59543,5.32449,5.32449,0,0,1,.8037.345,1.995,1.995,0,0,0,.63953.24149,3.20328,3.20328,0,0,1,.7738.243,3.75926,3.75926,0,0,0,1.14645.227,2.679,2.679,0,0,1,.4229.01822l.25006.03375c.06037.00836.04531.00583.06066.02036.02095.06875.0027.08642-.00745.15094-.0049.0581-.02455.18695.18584.30279a.46167.46167,0,0,0,.26635-.59219.50665.50665,0,0,0-.2243-.28757.63093.63093,0,0,0-.17479-.06818l-.09679-.02624-.42784-.10977a7.84078,7.84078,0,0,1-1.54513-.5578,11.74137,11.74137,0,0,1-3.5458-2.42658,10.60872,10.60872,0,0,1-2.431-3.973,4.84246,4.84246,0,0,1-.16457-.55783L13.745,9.87879a4.59321,4.59321,0,0,0-.18161-.61728L13.349,8.97836l-.24037-.30477a.64832.64832,0,0,0-.51238-.08271c-.19627.03113-.23039.16828-.369.29993l-.18129.20352a.62378.62378,0,0,0-.1974.35858l-.30917,1.09275c-.03878.12722-.06369.255-.12111.39926l-.08443.20678-.18556.45786a10.63588,10.63588,0,0,1-2.09506,3.0697,10.04292,10.04292,0,0,1-2.11869,1.67185,10.08631,10.08631,0,0,1-1.03053.53918,5.60451,5.60451,0,0,1-.59059.24887l-.31175.12073c-.16361.06873-.456.13364-.68454.2012l-.74179.20429-.3778.104-.09407.02628-.02934.03027-.0589.06082c-.14962.16062-.33511.33389-.463.49469a1.00033,1.00033,0,0,0-.0498.46924.4251.4251,0,0,0,.15814.32834l.25.26776.12625.13568c.03243.02264.01688.04562.08881.06812l.20534.06765.73881.202.68878.18692a1.492,1.492,0,0,1,.19918.06354l.08433.0336.172.06833a10.35331,10.35331,0,0,1,3.427,2.15738,10.76947,10.76947,0,0,1,1.70844,2.09622A11.71089,11.71089,0,0,1,11.159,26.0986,18.42227,18.42227,0,0,1,11.81828,28.10852Z"/><path d="M25.141,2.77164l-.06674-.11026-.068-.03919-.14975-.093a.69049.69049,0,0,0-.47122-.13025.64974.64974,0,0,0-.48848.23416c-.06408.07806-.11869.06906-.19.21988l-.20435.37738a9.14644,9.14644,0,0,1-.35754.92132A6.69907,6.69907,0,0,1,22.09883,5.6546a4.43988,4.43988,0,0,1-1.23794.95453c-.78285.38135-1.00389.41416-.921.4722a.34925.34925,0,0,1,.104.07419.3576.3576,0,0,0,.16759-.02866c.0894-.02188.55673-.0321,1.06012-.093a3.51875,3.51875,0,0,0,1.17362-.3349c.13879-.089.25946-.13926.28036-.11551.02132.02478.12918-.03089.453-.32959a5.32488,5.32488,0,0,0,.61112-.69727,6.14588,6.14588,0,0,0,.383-.57727l.17-.30578c.01053-.02518.04619-.13068.08083-.03959a.64866.64866,0,0,0,.02679.08762c-.031-.05536.09828.195.18863.35495.10456.17023.209.3479.33621.51846a6.36636,6.36636,0,0,0,1.39585,1.42948,6.28062,6.28062,0,0,0,.76262.49221l.15509.08469.00583.00433.01136.0084c.02077.00436.04474.02688.00916.033l-.02686.00549-.00987.00226-.25009.13171A6.4773,6.4773,0,0,0,24.59415,10.147c-.05151.08118-.09151.16517-.13512.2436l-.06221.1167c-.00209.00473.0004.00058.0004.00058l.00157.00335.0072.06977c.01213.02944-.02453.08758-.038.05178l-.03529-.06228-.13366-.24588c-.08928-.16214-.19462-.32434-.30363-.49015a5.93325,5.93325,0,0,0-1.58553-1.598c-.3462-.232-.4841-.27151-.53106-.2662a.98735.98735,0,0,1-.41829-.13315c-.16339-.07773-.31671-.11752-.32814-.09064a.9475.9475,0,0,1-.38887-.09561.91558.91558,0,0,0-.546-.062c-.01544.07758-.08808.06729-.07582.02368-.00069-.02917.10295-.09692-.12627-.41913-.002-.00995-.14546.00122-.27271.18128a.52454.52454,0,0,0,.1671.72879,2.06849,2.06849,0,0,0,.28389.11679l.20346.07916a2.82411,2.82411,0,0,1,.28524.15018,6.83755,6.83755,0,0,1,1.603,1.14847,5.13008,5.13008,0,0,1,.81116,1.05557,4.68148,4.68148,0,0,1,.22879.44519c.099.20535.16267.42731.2015.52405A5.62714,5.62714,0,0,0,23.7,12.3223a.52071.52071,0,0,0,.15189.23l.16371.16116a.69489.69489,0,0,0,.66362.08359,1.34828,1.34828,0,0,0,.63734-.70969c.008-.02508.05339-.15866.10954-.28744a4.197,4.197,0,0,1,.61116-1.17291,5.03785,5.03785,0,0,1,.45556-.538,5.18373,5.18373,0,0,1,1.10084-.88425,2.60746,2.60746,0,0,1,.25006-.14117l.13478-.07053a3.34386,3.34386,0,0,1,.34539-.14257,5.22231,5.22231,0,0,0,.66577-.27854l.29731-.15677.15067-.07965L29.49019,8.26a1.54963,1.54963,0,0,0,.19319-.31109,1.01774,1.01774,0,0,0,.02776-.53736.89508.89508,0,0,0-.17613-.355c-.016-.10513-.26-.23257-.467-.35727l-.09369-.05658c-.21388-.064-.39424-.149-.5867-.22l-.28-.10962a1.34158,1.34158,0,0,1-.13-.06341L27.924,6.22019a4.58273,4.58273,0,0,1-.39926-.23639,4.99715,4.99715,0,0,1-.63219-.48972,5.34115,5.34115,0,0,1-.77769-.88525c-.08826-.13089-.16663-.24851-.2322-.35819l-.09135-.15777L25.76947,4.056l-.04792-.09253-.07262-.17312c-.09429-.22266-.176-.43625-.25954-.60422Z"/></svg>