<?xml version="1.0"?><svg height="32" id="svg8" version="1.1" viewBox="0 0 8.4666665 8.4666669" width="32" xmlns="http://www.w3.org/2000/svg" xmlns:cc="http://creativecommons.org/ns#" xmlns:dc="http://purl.org/dc/elements/1.1/" xmlns:inkscape="http://www.inkscape.org/namespaces/inkscape" xmlns:rdf="http://www.w3.org/1999/02/22-rdf-syntax-ns#" xmlns:sodipodi="http://sodipodi.sourceforge.net/DTD/sodipodi-0.dtd" xmlns:svg="http://www.w3.org/2000/svg"><defs id="defs2"/><g id="layer1" transform="translate(0,-288.53331)"><path d="M 13.900391 1.0039062 A 1.0001001 1.0001001 0 0 0 13.132812 1.5058594 L 5.1308594 15.501953 A 1.0001001 1.0001001 0 0 0 6.0019531 17 L 10.482422 17 L 5.078125 29.607422 A 1.0001001 1.0001001 0 0 0 6.7109375 30.708984 L 24.707031 12.703125 A 1.0001001 1.0001001 0 0 0 23.998047 10.998047 L 19.769531 10.998047 L 24.855469 2.5175781 A 1.0001001 1.0001001 0 0 0 23.998047 1.0039062 L 14.003906 1.0039062 A 1.0001001 1.0001001 0 0 0 13.900391 1.0039062 z M 14.580078 2.9960938 L 22.234375 2.9960938 L 17.140625 11.486328 A 1.0001001 1.0001001 0 0 0 17.996094 13 L 21.583984 13 L 8.9609375 25.623047 L 12.917969 16.394531 A 1.0001001 1.0001001 0 0 0 12.003906 15 L 7.7207031 15 L 14.580078 2.9960938 z " id="path7641" style="color:#000000;font-style:normal;font-variant:normal;font-weight:normal;font-stretch:normal;font-size:medium;line-height:normal;font-family:sans-serif;font-variant-ligatures:normal;font-variant-position:normal;font-variant-caps:normal;font-variant-numeric:normal;font-variant-alternates:normal;font-feature-settings:normal;text-indent:0;text-align:start;text-decoration:none;text-decoration-line:none;text-decoration-style:solid;text-decoration-color:#000000;letter-spacing:normal;word-spacing:normal;text-transform:none;writing-mode:lr-tb;direction:ltr;text-orientation:mixed;dominant-baseline:auto;baseline-shift:baseline;text-anchor:start;white-space:normal;shape-padding:0;clip-rule:nonzero;display:inline;overflow:visible;visibility:visible;opacity:1;isolation:auto;mix-blend-mode:normal;color-interpolation:sRGB;color-interpolation-filters:linearRGB;solid-color:#000000;solid-opacity:1;vector-effect:none;fill:#000000;fill-opacity:1;fill-rule:nonzero;stroke:none;stroke-width:2;stroke-linecap:round;stroke-linejoin:round;stroke-miterlimit:4;stroke-dasharray:none;stroke-dashoffset:0;stroke-opacity:1;color-rendering:auto;image-rendering:auto;shape-rendering:auto;text-rendering:auto;enable-background:accumulate" transform="matrix(0.26458333,0,0,0.26458333,0,288.53331)"/></g></svg>