<?xml version="1.0"?><svg data-name="Layer 2" id="Layer_2" viewBox="0 0 2010 2010" xmlns="http://www.w3.org/2000/svg" xmlns:xlink="http://www.w3.org/1999/xlink"><defs><style>.cls-1{fill:url(#linear-gradient);}.cls-2{fill:url(#linear-gradient-2);}.cls-3{fill:url(#linear-gradient-3);}</style><linearGradient gradientUnits="userSpaceOnUse" id="linear-gradient" x1="-13.72" x2="1652.95" y1="1470.01" y2="-1025.68"><stop offset="0.06" stop-color="#ff6800"/><stop offset="1" stop-color="#fff100"/></linearGradient><linearGradient id="linear-gradient-2" x1="606.53" x2="2273.21" xlink:href="#linear-gradient" y1="1884.23" y2="-611.46"/><linearGradient id="linear-gradient-3" x1="297.09" x2="1963.76" xlink:href="#linear-gradient" y1="1677.58" y2="-818.12"/></defs><path class="cls-1" d="M572.31,444.9,625,541.3a39.75,39.75,0,0,0,15.81,15.81l96.4,52.72c27.58,15.09,27.58,54.69,0,69.77l-96.4,52.73A39.73,39.73,0,0,0,625,748.13l-52.72,96.4c-15.08,27.58-54.69,27.58-69.77,0l-52.72-96.4A39.73,39.73,0,0,0,434,732.33l-96.4-52.73c-27.58-15.08-27.58-54.68,0-69.77L434,557.11a39.75,39.75,0,0,0,15.81-15.81l52.72-96.4C517.62,417.32,557.23,417.32,572.31,444.9Z"/><path class="cls-2" d="M1292.65,513.19l122.77,224.48a92.67,92.67,0,0,0,36.8,36.8L1676.7,897.24c64.2,35.11,64.2,127.33,0,162.45l-224.48,122.77a92.55,92.55,0,0,0-36.8,36.8l-122.77,224.47c-35.12,64.21-127.33,64.21-162.45,0l-122.77-224.47a92.55,92.55,0,0,0-36.8-36.8L746.15,1059.69c-64.2-35.12-64.2-127.34,0-162.45L970.63,774.47a92.67,92.67,0,0,0,36.8-36.8L1130.2,513.19C1165.32,449,1257.53,449,1292.65,513.19Z"/><path class="cls-3" d="M540.53,1165.47l52.72,96.4a39.73,39.73,0,0,0,15.81,15.8l96.4,52.73c27.58,15.08,27.58,54.68,0,69.77l-96.4,52.72a39.75,39.75,0,0,0-15.81,15.81l-52.72,96.4c-15.08,27.58-54.69,27.58-69.77,0L418,1468.7a39.75,39.75,0,0,0-15.81-15.81l-96.4-52.72c-27.58-15.09-27.58-54.69,0-69.77l96.4-52.73a39.73,39.73,0,0,0,15.81-15.8l52.72-96.4C485.84,1137.89,525.45,1137.89,540.53,1165.47Z"/></svg>