<svg width="425.293" height="75.147" viewBox="0 0 425.293 75.147" xmlns="http://www.w3.org/2000/svg"><g id="svgGroup" stroke-linecap="round" fill-rule="evenodd" font-size="9pt" stroke="#000" stroke-width="0.25mm" fill="#000" style="stroke:#000;stroke-width:0.25mm;fill:#000"><path d="M 57.715 2.783 L 57.715 74.17 L 45.703 74.17 L 8.74 15.674 L 8.35 15.674 Q 8.496 18.311 8.691 21.46 Q 8.887 24.61 9.009 28.052 Q 9.131 31.494 9.18 35.01 L 9.18 74.17 L 0 74.17 L 0 2.783 L 11.914 2.783 L 48.73 60.987 L 49.072 60.987 Q 48.975 58.838 48.828 55.664 Q 48.682 52.491 48.56 48.95 Q 48.438 45.41 48.438 42.237 L 48.438 2.783 L 57.715 2.783 Z M 307.031 39.112 L 307.031 74.17 L 297.314 74.17 L 297.314 40.43 Q 297.314 33.985 294.482 30.738 Q 291.65 27.491 285.791 27.491 Q 277.441 27.491 274.097 32.422 Q 270.752 37.354 270.752 46.729 L 270.752 74.17 L 260.938 74.17 L 260.938 20.362 L 268.701 20.362 L 270.117 27.93 L 270.654 27.93 Q 272.363 25.098 275 23.194 Q 277.637 21.289 280.884 20.337 Q 284.131 19.385 287.695 19.385 Q 297.021 19.385 302.026 24.073 Q 307.031 28.76 307.031 39.112 Z M 405.615 74.17 L 395.117 74.17 L 387.207 52.93 L 359.229 52.93 L 351.416 74.17 L 341.016 74.17 L 368.262 2.491 L 378.516 2.491 L 405.615 74.17 Z M 162.891 65.869 L 162.891 73.389 Q 161.23 74.121 158.472 74.634 Q 155.713 75.147 152.832 75.147 Q 148.438 75.147 144.873 73.633 Q 141.309 72.119 139.185 68.457 Q 137.061 64.795 137.061 58.301 L 137.061 27.93 L 129.59 27.93 L 129.59 23.389 L 137.402 19.776 L 140.869 8.155 L 146.924 8.155 L 146.924 20.362 L 162.5 20.362 L 162.5 27.93 L 146.924 27.93 L 146.924 58.155 Q 146.924 62.696 149.097 64.942 Q 151.27 67.188 154.932 67.188 Q 157.031 67.188 159.18 66.822 Q 161.328 66.455 162.891 65.869 Z M 122.607 47.168 Q 122.607 53.809 120.874 59.009 Q 119.141 64.209 115.845 67.798 Q 112.549 71.387 107.91 73.267 Q 103.271 75.147 97.412 75.147 Q 91.943 75.147 87.378 73.267 Q 82.813 71.387 79.492 67.798 Q 76.172 64.209 74.365 59.009 Q 72.559 53.809 72.559 47.168 Q 72.559 38.33 75.586 32.105 Q 78.613 25.879 84.253 22.632 Q 89.893 19.385 97.705 19.385 Q 105.127 19.385 110.742 22.657 Q 116.357 25.928 119.482 32.129 Q 122.607 38.33 122.607 47.168 Z M 247.363 47.168 Q 247.363 53.809 245.63 59.009 Q 243.896 64.209 240.601 67.798 Q 237.305 71.387 232.666 73.267 Q 228.027 75.147 222.168 75.147 Q 216.699 75.147 212.134 73.267 Q 207.568 71.387 204.248 67.798 Q 200.928 64.209 199.121 59.009 Q 197.314 53.809 197.314 47.168 Q 197.314 38.33 200.342 32.105 Q 203.369 25.879 209.009 22.632 Q 214.648 19.385 222.461 19.385 Q 229.883 19.385 235.498 22.657 Q 241.113 25.928 244.238 32.129 Q 247.363 38.33 247.363 47.168 Z M 425.293 74.17 L 415.283 74.17 L 415.283 2.783 L 425.293 2.783 L 425.293 74.17 Z M 173.779 20.362 L 183.594 20.362 L 183.594 74.17 L 173.779 74.17 L 173.779 20.362 Z M 82.617 47.168 Q 82.617 53.369 84.204 57.837 Q 85.791 62.305 89.087 64.698 Q 92.383 67.09 97.607 67.09 Q 102.734 67.09 106.055 64.698 Q 109.375 62.305 110.938 57.837 Q 112.5 53.369 112.5 47.168 Q 112.5 41.016 110.938 36.621 Q 109.375 32.227 106.079 29.883 Q 102.783 27.539 97.51 27.539 Q 89.795 27.539 86.206 32.691 Q 82.617 37.842 82.617 47.168 Z M 207.373 47.168 Q 207.373 53.369 208.96 57.837 Q 210.547 62.305 213.843 64.698 Q 217.139 67.09 222.363 67.09 Q 227.49 67.09 230.811 64.698 Q 234.131 62.305 235.693 57.837 Q 237.256 53.369 237.256 47.168 Q 237.256 41.016 235.693 36.621 Q 234.131 32.227 230.835 29.883 Q 227.539 27.539 222.266 27.539 Q 214.551 27.539 210.962 32.691 Q 207.373 37.842 207.373 47.168 Z M 362.305 44.239 L 384.424 44.239 L 376.904 23.194 Q 376.563 22.119 375.854 19.971 Q 375.146 17.823 374.438 15.528 Q 373.73 13.233 373.291 11.719 Q 372.803 13.721 372.168 15.943 Q 371.533 18.164 370.923 20.093 Q 370.313 22.022 369.922 23.194 L 362.305 44.239 Z M 178.76 0 Q 181.104 0 182.788 1.367 Q 184.473 2.735 184.473 5.811 Q 184.473 8.887 182.788 10.279 Q 181.104 11.67 178.76 11.67 Q 176.367 11.67 174.731 10.279 Q 173.096 8.887 173.096 5.811 Q 173.096 2.735 174.731 1.367 Q 176.367 0 178.76 0 Z" vector-effect="non-scaling-stroke"/></g></svg>